<?xml version="1.0" encoding="UTF-8"?>
<svg version="1.1" xmlns="http://www.w3.org/2000/svg" width="16" height="16">
<path d="M0 0 C0.268125 0.639375 0.53625 1.27875 0.8125 1.9375 C1.88667752 4.33131686 1.88667752 4.33131686 5 5 C5.45984455 8.95466314 5.27492364 10.59620591 3 13.9375 C-0.07641489 16.05253524 -0.63321468 16.33308115 -4.125 16.0625 C-6.79089042 15.51926195 -7.88268995 15.09898036 -10 13.3125 C-11.25320885 10.41445453 -11.2130417 8.12461161 -11 5 C-10.34 5 -9.68 5 -9 5 C-8.87625 4.360625 -8.7525 3.72125 -8.625 3.0625 C-8.41875 2.381875 -8.2125 1.70125 -8 1 C-5.29120665 -0.35439668 -2.99066732 -0.06501451 0 0 Z " fill="#2083DE" transform="translate(11,0)"/>
<path d="M0 0 C0.66 1.32 1.32 2.64 2 4 C1.505 4.4125 1.01 4.825 0.5 5.25 C-1.43386092 7.12202338 -1.43386092 7.12202338 -1 11 C-2.32 11 -3.64 11 -5 11 C-4.67 10.34 -4.34 9.68 -4 9 C-4.33 8.34 -4.66 7.68 -5 7 C-6.65 7.33 -8.3 7.66 -10 8 C-10.33 8.99 -10.66 9.98 -11 11 C-11 9.02 -11 7.04 -11 5 C-10.34 5 -9.68 5 -9 5 C-8.87625 4.360625 -8.7525 3.72125 -8.625 3.0625 C-8.41875 2.381875 -8.2125 1.70125 -8 1 C-5.29120665 -0.35439668 -2.99066732 -0.06501451 0 0 Z " fill="#27BDEF" transform="translate(11,0)"/>
<path d="M0 0 C1.32 1.65 2.64 3.3 4 5 C3.21625 5.28875 2.4325 5.5775 1.625 5.875 C-1.09671632 6.84912254 -1.09671632 6.84912254 -3 9 C-4 8 -4 8 -4.0625 5.4375 C-4.041875 4.633125 -4.02125 3.82875 -4 3 C-2.68 3 -1.36 3 0 3 C0 2.01 0 1.02 0 0 Z " fill="#2299DF" transform="translate(5,5)"/>
<path d="M0 0 C3 1 3 1 4.1875 3.0625 C4.455625 3.701875 4.72375 4.34125 5 5 C3.35 5.33 1.7 5.66 0 6 C0.33 5.34 0.66 4.68 1 4 C0.60061233 1.90178785 0.60061233 1.90178785 0 0 Z " fill="#90E7FD" transform="translate(6,5)"/>
</svg>
